<svg width="15" height="20" viewBox="0 0 15 20" fill="none" xmlns="http://www.w3.org/2000/svg">
<path d="M7.94592 18.1326C7.7459 18.3437 7.5656 18.5293 7.41078 18.686C7.24451 18.5325 7.04955 18.3432 6.83178 18.1208C6.13517 17.4092 5.24293 16.3965 4.36496 15.2158C2.56769 12.7988 1 9.90177 1 7.5C1 3.91015 3.91015 1 7.5 1C11.0899 1 14 3.91015 14 7.5C14 8.66117 13.5996 9.9721 12.9308 11.3321C12.2667 12.6824 11.3707 14.0154 10.4574 15.2028C9.54625 16.3873 8.63265 17.4077 7.94592 18.1326Z" stroke="#BAB9B9" stroke-width="2" stroke-linecap="round" stroke-linejoin="round"/>
<circle cx="7.5" cy="7.5" r="3.5" stroke="#BAB9B9" stroke-width="2" stroke-linecap="round" stroke-linejoin="round"/>
</svg>
